<?xml version="1.0" encoding="UTF-8" standalone="no"?>
<!-- Svg Vector Icons : http://www.onlinewebfonts.com/icon -->

<svg
   xmlns:dc="http://purl.org/dc/elements/1.1/"
   xmlns:cc="http://creativecommons.org/ns#"
   xmlns:rdf="http://www.w3.org/1999/02/22-rdf-syntax-ns#"
   xmlns:svg="http://www.w3.org/2000/svg"
   xmlns="http://www.w3.org/2000/svg"
   xmlns:sodipodi="http://sodipodi.sourceforge.net/DTD/sodipodi-0.dtd"
   xmlns:inkscape="http://www.inkscape.org/namespaces/inkscape"
   version="1.1"
   x="0px"
   y="0px"
   viewBox="0 0 1000 1000"
   enable-background="new 0 0 1000 1000"
   xml:space="preserve"
   id="svg12"
   sodipodi:docname="iconGeVruler.svg"
   inkscape:version="0.92.4 (unknown)"><defs
   id="defs16" /><sodipodi:namedview
   pagecolor="#ffffff"
   bordercolor="#666666"
   borderopacity="1"
   objecttolerance="10"
   gridtolerance="10"
   guidetolerance="10"
   inkscape:pageopacity="0"
   inkscape:pageshadow="2"
   inkscape:window-width="3200"
   inkscape:window-height="1672"
   id="namedview14"
   showgrid="false"
   inkscape:zoom="1.3350176"
   inkscape:cx="274.02074"
   inkscape:cy="500"
   inkscape:window-x="0"
   inkscape:window-y="54"
   inkscape:window-maximized="1"
   inkscape:current-layer="svg12" />
<metadata
   id="metadata2"> Svg Vector Icons : http://www.onlinewebfonts.com/icon <rdf:RDF><cc:Work
     rdf:about=""><dc:format>image/svg+xml</dc:format><dc:type
       rdf:resource="http://purl.org/dc/dcmitype/StillImage" /><dc:title></dc:title></cc:Work></rdf:RDF></metadata>
<g
   id="g10"><g
     transform="translate(0.000000,512.000000) scale(0.100000,-0.100000)"
     id="g8"><path
       d="M6560.3,4999.6c-44.1-13.4-118.9-47.9-162.9-74.8c-46-26.8-1457-1426.3-3142.1-3113.4C-161-1608.6,103.5-1321,105.4-1606.7c0-262.6-61.3-191.7,1478.1-1727.3c1537.5-1535.6,1434-1447.4,1712-1443.6c107.4,0,168.7,11.5,239.6,46c78.6,36.4,634.6,580.9,3184.3,3132.5C9271,950.7,9815.5,1506.7,9851.9,1585.3c34.5,70.9,46,132.3,46,239.6c3.8,278,92,174.5-1443.6,1712C7373.1,4622,7060.6,4923,6985.9,4961.3C6865.1,5018.8,6675.3,5038,6560.3,4999.6z M6836.3,4698.7c72.8-26.8,2705-2653.3,2739.5-2733.8c36.4-86.3,32.6-186-9.6-270.3c-47.9-88.2-6065.7-6104-6150-6146.2c-70.9-34.5-170.6-40.3-249.2-9.6c-69,24.9-2699.3,2651.3-2737.6,2731.9c-34.5,72.8-38.3,184.1-7.7,243.5c11.5,23,103.5,126.5,205.1,228.1l184,187.9l233.9-230c210.9-209,237.7-230,301-230c93.9,0,147.6,53.7,147.6,147.6c0,63.3-21.1,90.1-230.1,301l-230,233.9l216.6,214.7l214.7,214.7l450.5-450.5c383.4-383.4,458.2-450.5,506.1-450.5c80.5,0,145.7,67.1,145.7,151.4c0,61.3-32.6,99.7-444.8,513.8l-446.7,446.7L1890.3,7.5l216.6,214.7l235.8-233.9C2538.2-205.3,2590-245.5,2636-245.5c101.6,1.9,178.3,107.4,143.8,197.5c-9.6,23-116.9,141.9-239.6,262.6l-222.4,220.5l214.7,214.7l214.7,216.6l233.9-230.1c210.9-209,237.7-230,301-230c86.3,0,147.6,59.4,147.6,141.9c0,49.8-36.4,95.9-233.9,293.3L2960,1077.3l214.7,214.7l216.6,216.6l446.7-446.7c406.4-404.5,452.4-444.8,511.9-444.8c88.2,0,153.4,63.3,153.4,151.5c0,61.3-32.6,99.7-444.8,513.8l-446.7,446.7l216.6,216.6l214.7,214.7l235.8-235.8c197.5-197.5,243.5-233.9,293.3-233.9c82.4,0,141.9,61.3,141.9,147.6c0,63.3-21.1,90.1-230.1,301l-230,233.9l216.6,214.7l214.7,214.7l220.5-222.4c120.8-122.7,239.6-230,264.6-239.6c88.2-34.5,193.6,42.2,195.5,143.8c0,46-40.3,97.8-233.9,293.3l-233.9,235.8l214.7,216.6l214.7,214.7l446.7-446.7c406.4-404.5,452.5-444.8,511.9-444.8c84.4,0,153.4,63.3,153.4,141.9c0,51.8-57.5,116.9-450.5,510l-450.5,450.5l214.7,214.7l214.7,216.6l233.9-230c210.9-209,237.7-230,301-230c46,0,84.4,13.4,109.3,38.3c24.9,24.9,38.3,63.3,38.3,109.3c0,63.3-21.1,90.1-230,301l-230,233.9l187.9,184c101.6,99.7,203.2,191.7,224.3,203.2C6652.3,4723.6,6767.3,4725.5,6836.3,4698.7z"
       id="path4" /><path
       d="M7729.7,2384.7c-209-74.8-341.2-214.7-402.6-423.7c-76.7-264.6,51.8-557.9,304.8-694c111.2-59.4,134.2-65.2,283.7-63.3c191.7,0,306.7,46,431.3,170.6s170.6,239.6,170.6,431.3c1.9,149.5-3.8,172.5-63.3,283.7c-36.4,67.1-97.8,145.7-138,178.3C8143.8,2403.9,7913.7,2449.9,7729.7,2384.7z M8036.4,2085.7c197.5-82.4,245.4-339.3,92-492.7c-214.7-216.6-567.5-23-511.8,279.9C7651.1,2053.1,7862,2160.4,8036.4,2085.7z"
       id="path6" /></g></g>
<flowRoot
   xml:space="preserve"
   id="flowRoot18"
   style="font-style:normal;font-variant:normal;font-weight:normal;font-stretch:normal;font-size:64px;line-height:1.25;font-family:sans-serif;-inkscape-font-specification:'sans-serif, Normal';font-variant-ligatures:normal;font-variant-caps:normal;font-variant-numeric:normal;font-feature-settings:normal;text-align:start;letter-spacing:0px;word-spacing:0px;writing-mode:lr-tb;text-anchor:start;fill:#0000ff;fill-opacity:1;stroke:none;"
   transform="matrix(2.9332484,-2.9122794,2.9122794,2.9332484,-2327.9675,-118.68108)"><flowRegion
     id="flowRegion20"
     style="font-style:normal;font-variant:normal;font-weight:normal;font-stretch:normal;font-size:64px;font-family:sans-serif;-inkscape-font-specification:'sans-serif, Normal';font-variant-ligatures:normal;font-variant-caps:normal;font-variant-numeric:normal;font-feature-settings:normal;text-align:start;writing-mode:lr-tb;text-anchor:start;fill:#0000ff;"><rect
       id="rect22"
       width="275.65179"
       height="125.84103"
       x="295.1272"
       y="572.29028"
       style="font-style:normal;font-variant:normal;font-weight:normal;font-stretch:normal;font-size:64px;font-family:sans-serif;-inkscape-font-specification:'sans-serif, Normal';font-variant-ligatures:normal;font-variant-caps:normal;font-variant-numeric:normal;font-feature-settings:normal;text-align:start;writing-mode:lr-tb;text-anchor:start;fill:#0000ff;" /></flowRegion><flowPara
     id="flowPara24">GeV</flowPara></flowRoot><text
   xml:space="preserve"
   style="font-style:normal;font-weight:normal;font-size:40px;line-height:1.25;font-family:sans-serif;letter-spacing:0px;word-spacing:0px;fill:#000000;fill-opacity:1;stroke:none"
   x="414.9758"
   y="592.51477"
   id="text28"><tspan
     sodipodi:role="line"
     id="tspan26"
     x="414.9758"
     y="627.9054" /></text>
</svg>